<?xml version="1.0" ?><!DOCTYPE svg  PUBLIC '-//W3C//DTD SVG 1.1//EN'  'http://www.w3.org/Graphics/SVG/1.1/DTD/svg11.dtd'><svg enable-background="new 0 0 128 128" id="Layer_1" version="1.1" viewBox="0 0 128 128" xml:space="preserve" xmlns="http://www.w3.org/2000/svg" xmlns:xlink="http://www.w3.org/1999/xlink"><g><circle cx="64" cy="64" fill="#535A85" r="64"/><path d="M128,63.4L94,30.2l-69.5,69l27.7,27.7C56,127.6,60,128,64,128c35.3,0,64-28.7,64-64   C128,63.8,128,63.6,128,63.4z" fill="#4C4C78"/><g><path d="M105,48.2v47.2c0,3.1-2.5,5.5-5.5,5.5h-71c-3.1,0-5.5-2.5-5.5-5.5V48.2L64,18L105,48.2z" fill="#FFCC04"/><path d="M95.2,93.5H32.8V32.8c0-2,1.6-3.5,3.5-3.5h55.3c2,0,3.5,1.6,3.5,3.5V93.5z" fill="#FFFFFF"/><path d="M86.2,100.9H28.5c-3.1,0-5.5-2.5-5.5-5.5V48.2l66.2,42.5C93.8,93.7,91.7,100.9,86.2,100.9z" fill="#009A9C"/><path d="M105,48.2L25,99.6c1,0.8,2.2,1.3,3.5,1.3h71c1.9,0,3.6-1,4.6-2.4c0.6-0.9,0.9-1.9,0.9-3.1L105,48.2    L105,48.2z" fill="#00B0A6"/><path d="M71.7,53.7c0.6,0,1.1-0.5,1.5-1.4c0.4-0.9,0.6-2,0.6-3.4c0-3-0.9-5.4-2.6-7.4c-1.7-1.9-4-2.9-6.9-2.9    c-2.9,0-5.3,1-7.2,3.1c-2,2-2.9,4.5-2.9,7.3s0.9,5.2,2.8,7.1c1.8,1.9,4.1,2.8,6.8,2.8c2.1,0,4-0.8,5.6-2.3l1.3,2.2    c-0.8,0.7-1.9,1.3-3.2,1.8c-1.3,0.5-2.5,0.7-3.7,0.7c-3.5,0-6.5-1.2-8.8-3.5c-2.4-2.3-3.6-5.3-3.6-8.8c0-3.5,1.2-6.5,3.7-9    c2.5-2.5,5.5-3.7,9-3.7c3.5,0,6.5,1.2,8.8,3.6c2.4,2.4,3.5,5.4,3.5,9c0,2.3-0.5,4.2-1.4,5.6c-1,1.4-2.2,2.1-3.8,2.1    c-0.8,0-1.5-0.2-2.2-0.7c-0.7-0.5-1.1-1.1-1.4-1.8c-1.2,1.5-2.6,2.2-4.4,2.2c-1.8,0-3.3-0.7-4.6-2c-1.3-1.3-2-3.1-2-5.1    s0.6-3.8,1.8-5.2c1.2-1.4,2.8-2.1,4.7-2.1c0.7,0,1.3,0.1,1.9,0.4c0.6,0.3,1,0.6,1.3,0.8l0.4,0.4V42h4v10.1    C70.7,53.2,71,53.7,71.7,53.7z M66.8,48.9c0-1.1-0.3-1.9-0.8-2.6c-0.6-0.7-1.3-1-2.2-1c-0.9,0-1.6,0.3-2.2,1    c-0.5,0.7-0.8,1.6-0.8,2.6c0,1,0.3,1.9,0.8,2.7c0.5,0.8,1.3,1.1,2.2,1.1c0.9,0,1.7-0.4,2.2-1.1C66.5,50.9,66.8,50,66.8,48.9z" fill="#F45D5D"/></g></g></svg>